<svg xmlns="http://www.w3.org/2000/svg" viewBox="0 0 24 24" fill="none">
  <!-- Leaf body: teardrop tapering to a stem, with a central vein -->
  <path d="M12 21.5C12 21.5 4.5 16.5 4.5 10.5C4.5 6.5 7.5 3.5 12 2.5C16.5 3.5 19.5 6.5 19.5 10.5C19.5 16.5 12 21.5 12 21.5Z" fill="#16a34a" fill-opacity="0.15" stroke="#16a34a" stroke-width="1.5" stroke-linejoin="round"/>
  <!-- Central vein -->
  <path d="M12 3.5V20.5" stroke="#16a34a" stroke-width="1.2" stroke-linecap="round"/>
  <!-- Side veins - left -->
  <path d="M12 7.5C10.5 8.5 9 9.5 8 11" stroke="#16a34a" stroke-width="1" stroke-linecap="round"/>
  <path d="M12 11.5C10.5 12.5 9.5 13.5 8.8 15" stroke="#16a34a" stroke-width="1" stroke-linecap="round"/>
  <!-- Side veins - right -->
  <path d="M12 7.5C13.5 8.5 15 9.5 16 11" stroke="#16a34a" stroke-width="1" stroke-linecap="round"/>
  <path d="M12 11.5C13.5 12.5 14.5 13.5 15.2 15" stroke="#16a34a" stroke-width="1" stroke-linecap="round"/>
  <!-- Stem -->
  <path d="M12 20.5C12 20.5 12.5 22 13 22.5" stroke="#16a34a" stroke-width="1.5" stroke-linecap="round"/>
</svg>
